#!OML:ASF H:\Terrain\Patient Classification 1\Animal1\Tuesday\Animal1.ASF
:FULLY-SPECIFIED
:DEGREES
2578
root 13.9033 16.4801 -12.3137 -345.162 11.6017 -0.470299
lowerback 5.14717 -2.83516 0.840517
upperback 0.744774 -3.67765 1.97793
thorax -2.03731 -1.83239 1.81107
lowerneck 0.430932 -8.92948 -13.0296
upperneck 7.88437 -14.9094 31.3477
head 5.82695 -6.9033 11.7508
rclavicle -4.83047e-014 2.76311e-014
rhumerus -44.7358 7.01575 -69.7867
rradius 112.777
rwrist -0.654025
rhand 15.5346 14.7615
rfingers 7.12502
rthumb 40.3546 -10.3566
lclavicle -4.83047e-014 2.76311e-014
lhumerus -1.88757 -24.2187 83.6639
lradius 105.646
lwrist -54.6128
lhand 7.36664 49.6655
lfingers 7.12502
lthumb 32.6246 76.7441
rfemur -28.4609 10.0836 16.5153
rtibia 27.3939
rfoot -6.86258 -32.8186
rtoes 7.18664
lfemur -31.6534 -26.6146 -1.0031
ltibia 17.6858
lfoot -4.68668 14.1025
ltoes -33.99
2579
root 13.9108 16.4801 -12.3091 -345.256 11.5423 -0.758115
lowerback 5.11579 -2.90732 0.755786
upperback 0.672197 -3.77668 2.04494
thorax -2.08211 -1.88095 1.9344
lowerneck 0.509177 -8.90988 -13.1005
upperneck 8.09729 -14.9324 31.2574
head 5.87667 -6.91348 11.7377
rclavicle 4.17448e-015 -5.76476e-015
rhumerus -44.8101 6.00633 -68.6222
rradius 112.735
rwrist -0.45449
rhand 15.5698 14.577
rfingers 7.12502
rthumb 40.3877 -10.5309
lclavicle 4.17448e-015 -5.76476e-015
lhumerus -1.99406 -26.3126 84.1088
lradius 105.017
lwrist -54.4909
lhand 7.43873 49.1218
lfingers 7.12502
lthumb 32.6932 76.1862
rfemur -28.1867 10.5073 16.7161
rtibia 26.9684
rfoot -7.05437 -32.9785
rtoes 8.1747
lfemur -31.7098 -26.4901 -0.762635
ltibia 17.9866
lfoot -4.86273 14.0887
ltoes -33.676
2580
root 13.9194 16.4802 -12.31 -345.244 11.3937 -0.918032
lowerback 5.2277 -2.96788 0.55646
upperback 0.465872 -3.86219 2.09516
thorax -2.33812 -1.9203 2.11717
lowerneck 0.566405 -8.91168 -13.2453
upperneck 8.44976 -15.0144 31.1185
head 5.98835 -6.94546 11.7163
rclavicle 2.54444e-014 5.66536e-015
rhumerus -44.8814 5.01763 -67.3231
rradius 112.655
rwrist -0.336074
rhand 15.872 14.1414
rfingers 7.12502
rthumb 40.6718 -10.8784
lclavicle 2.54444e-014 5.66536e-015
lhumerus -2.17801 -28.2604 84.6678
lradius 104.218
lwrist -54.3692
lhand 7.95454 49.6219
lfingers 7.12502
lthumb 33.1838 76.5832
rfemur -28.1234 10.8388 16.7713
rtibia 26.7008
rfoot -7.05751 -33.0302
rtoes 8.6057
lfemur -31.8617 -26.4611 -0.590669
ltibia 18.2755
lfoot -4.95002 14.2669
ltoes -33.8046
2581
root 13.9313 16.4777 -12.3132 -345.283 11.2511 -0.949898
lowerback 5.38943 -3.04215 0.246959
upperback 0.294679 -3.97311 2.14974
thorax -2.57658 -1.97025 2.36998
lowerneck 0.554093 -8.81785 -13.3675
upperneck 8.77703 -14.9395 30.9478
head 6.06057 -6.89748 11.6934
rclavicle 1.87603e-014 -3.06128e-014
rhumerus -44.6952 3.83852 -66.0442
rradius 112.431
rwrist -0.0253257
rhand 15.729 14.2517
rfingers 7.12502
rthumb 40.5374 -10.8099
lclavicle 1.87603e-014 -3.06128e-014
lhumerus -2.51478 -30.0593 85.2887
lradius 103.454
lwrist -54.2809
lhand 8.81578 50.7822
lfingers 7.12502
lthumb 34.0023 77.5654
rfemur -28.0208 11.0225 16.7303
rtibia 26.5105
rfoot -6.99981 -32.9696
rtoes 8.71382
lfemur -31.9546 -26.4796 -0.602106
ltibia 18.5865
lfoot -5.24354 14.3554
ltoes -32.9502
2582
root 13.9435 16.4756 -12.3122 -345.35 11.1032 -1.05213
lowerback 5.46154 -3.09209 0.0671257
upperback 0.151572 -4.04719 2.18176
thorax -2.74698 -2.00306 2.51878
lowerneck 0.818723 -8.71228 -13.6248
upperneck 8.78797 -14.8119 30.9911
head 6.00426 -6.86738 11.7932
rclavicle 1.51573e-015 3.08116e-015
rhumerus -44.4345 2.53461 -64.8654
rradius 112.179
rwrist 0.68977
rhand 15.3245 14.937
rfingers 7.12502
rthumb 40.157 -10.2415
lclavicle 1.51573e-015 3.08116e-015
lhumerus -3.19381 -31.824 85.9891
lradius 102.717
lwrist -54.3004
lhand 9.75042 50.6748
lfingers 7.12502
lthumb 34.8896 77.2566
rfemur -27.8914 11.2268 16.7609
rtibia 26.3389
rfoot -7.30833 -32.8964
rtoes 9.52224
lfemur -31.9683 -26.3307 -0.623783
ltibia 18.8637
lfoot -4.07782 14.2328
ltoes -37.243
2583
root 13.954 16.4755 -12.3113 -345.367 10.9738 -1.30393
lowerback 5.43352 -3.12314 0.0597928
upperback 0.0167069 -4.08676 2.22037
thorax -2.86554 -2.021 2.56936
lowerneck 1.04962 -8.65995 -13.822
upperneck 8.81336 -14.7712 31.0698
head 5.98001 -6.87278 11.8838
rclavicle 3.27995e-014 -1.67476e-014
rhumerus -44.0844 1.41396 -63.6599
rradius 111.947
rwrist 1.32271
rhand 15.3911 14.9335
rfingers 7.12502
rthumb 40.2196 -10.2259
lclavicle 3.27995e-014 -1.67476e-014
lhumerus -4.00227 -33.6245 86.7829
lradius 101.96
lwrist -54.1246
lhand 10.1975 50.0313
lfingers 7.12502
lthumb 35.3137 76.5135
rfemur -27.8499 11.5909 16.8932
rtibia 26.1615
rfoot -7.86271 -33.0045
rtoes 10.6501
lfemur -32.0425 -25.9145 -0.528214
ltibia 19.1295
lfoot -6.86014 14.0992
ltoes -28.111
2584
root 13.9637 16.4761 -12.3087 -345.348 10.775 -1.50597
lowerback 5.22067 -3.14894 -0.00265202
upperback -0.0454267 -4.12802 2.20596
thorax -2.80538 -2.04149 2.58097
lowerneck 1.05404 -8.63323 -13.7646
upperneck 9.04182 -14.7797 30.9556
head 6.03263 -6.86562 11.8346
rclavicle -8.03401e-014 2.28602e-014
rhumerus -43.543 0.464535 -62.524
rradius 111.586
rwrist 1.84221
rhand 15.9324 14.4889
rfingers 7.12502
rthumb 40.7285 -10.5131
lclavicle -8.03401e-014 2.28602e-014
lhumerus -4.83828 -35.3226 87.5766
lradius 101.359
lwrist -53.6376
lhand 9.74123 49.8679
lfingers 7.12502
lthumb 34.8809 76.4517
rfemur -27.8611 12.0765 16.9387
rtibia 25.9958
rfoot -8.1635 -33.2553
rtoes 11.2902
lfemur -32.0859 -25.464 -0.492935
ltibia 19.3459
lfoot -7.95818 13.7572
ltoes -23.0168
2585
root 13.9746 16.4758 -12.3055 -345.411 10.4403 -1.61079
lowerback 5.08085 -3.14584 -0.18359
upperback -0.0711633 -4.13814 2.156
thorax -2.74405 -2.0452 2.62279
lowerneck 1.13263 -8.61282 -13.6932
upperneck 9.1594 -14.778 30.8674
head 6.03674 -6.86529 11.7935
rclavicle -3.03892e-014 4.34841e-015
rhumerus -42.875 -0.519679 -61.4088
rradius 111.23
rwrist 2.47603
rhand 16.2994 14.3719
rfingers 7.12502
rthumb 41.0733 -10.5211
lclavicle -3.03892e-014 4.34841e-015
lhumerus -5.72305 -36.6748 88.4419
lradius 100.719
lwrist -53.1692
lhand 8.97949 49.4892
lfingers 7.12502
lthumb 34.1578 76.2378
rfemur -27.8375 12.4741 16.9161
rtibia 25.923
rfoot -8.225 -33.275
rtoes 11.4844
lfemur -31.8526 -25.1739 -0.580283
ltibia 19.3102
lfoot -8.0482 13.7474
ltoes -22.5357
2586
root 13.9921 16.4785 -12.2963 -345.613 10.0994 -1.54394
lowerback 5.11729 -3.18959 -0.497616
upperback -0.0872177 -4.21636 2.11472
thorax -2.75799 -2.08013 2.76341
lowerneck 1.2172 -8.56664 -13.7488
upperneck 9.25678 -14.7378 30.805
head 6.0366 -6.85256 11.7925
rclavicle -3.2054e-015 -3.62782e-015
rhumerus -41.8745 -1.64314 -60.3588
rradius 110.775
rwrist 3.28903
rhand 16.2745 14.2331
rfingers 7.12502
rthumb 41.05 -10.6674
lclavicle -3.2054e-015 -3.62782e-015
lhumerus -6.78949 -37.6222 89.398
lradius 100.071
lwrist -52.7717
lhand 8.51626 49.1565
lfingers 7.12502
lthumb 33.7177 76.0025
rfemur -27.6145 12.5323 16.8257
rtibia 25.9645
rfoot -8.20548 -32.9874
rtoes 11.5453
lfemur -31.2337 -25.0131 -0.986388
ltibia 18.9826
lfoot -7.97866 13.8174
ltoes -22.916
2587
root 14.0217 16.4951 -12.2605 -345.86 9.7517 -0.90105
lowerback 4.91472 -3.30267 -1.1444
upperback -0.0242823 -4.41369 1.86107
thorax -2.54114 -2.17515 2.85849
lowerneck 1.13464 -8.49594 -13.82
upperneck 9.64274 -14.6989 30.574
head 6.13984 -6.81446 11.7289
rclavicle -2.88486e-014 -2.98177e-016
rhumerus -40.746 -2.89878 -59.6065
rradius 110.246
rwrist 4.2494
rhand 15.894 14.1247
rfingers 7.12502
rthumb 40.6925 -10.8886
lclavicle -2.88486e-014 -2.98177e-016
lhumerus -8.13828 -38.3397 90.3758
lradius 99.5823
lwrist -52.3197
lhand 8.07637 48.1337
lfingers 7.12502
lthumb 33.2996 75.0702
rfemur -27.0361 12.1285 16.2439
rtibia 26.0513
rfoot -8.44622 -32.5255
rtoes 11.2017
lfemur -30.23 -25.19 -2.1804
ltibia 18.537
lfoot -7.87878 13.9688
ltoes -22.8857
2588
root 14.0507 16.5111 -12.221 -346.111 9.32372 -0.133392
lowerback 4.65433 -3.39211 -1.86898
upperback 0.0377763 -4.58045 1.52609
thorax -2.293 -2.25613 2.90576
lowerneck 1.25755 -8.39133 -13.8991
upperneck 9.97147 -14.6109 30.37
head 6.17685 -6.77318 11.6925
rclavicle 6.93262e-015 -2.18663e-015
rhumerus -39.7653 -3.96929 -59.0462
rradius 109.913
rwrist 5.05912
rhand 15.5294 14.0728
rfingers 7.12502
rthumb 40.3498 -11.0468
lclavicle 6.93262e-015 -2.18663e-015
lhumerus -9.75072 -38.8856 91.523
lradius 99.2073
lwrist -52.0716
lhand 7.59504 46.8149
lfingers 7.12502
lthumb 32.8419 73.8484
rfemur -26.4538 11.8419 15.4682
rtibia 26.1183
rfoot -8.2563 -32.1841
rtoes 9.6023
lfemur -29.1784 -25.4148 -3.51973
ltibia 18.1265
lfoot -7.91672 14.1643
ltoes -22.3836
2589
root 14.0754 16.5162 -12.2109 -346.141 9.05964 0.110813
lowerback 4.48233 -3.50284 -2.1303
upperback 0.0223021 -4.742 1.4326
thorax -2.18955 -2.33617 2.95192
lowerneck 1.48855 -8.35241 -13.91
upperneck 9.90575 -14.5328 30.2
head 6.07575 -6.76407 11.6415
rclavicle -2.21148e-015 2.24627e-014
rhumerus -38.4395 -4.96155 -58.6303
rradius 109.596
rwrist 5.75743
rhand 15.3822 13.9391
rfingers 7.12502
rthumb 40.2113 -11.2229
lclavicle -2.21148e-015 2.24627e-014
lhumerus -11.255 -39.3812 92.7629
lradius 99.0265
lwrist -52.3732
lhand 7.74803 47.0035
lfingers 7.12502
lthumb 32.9874 74.0063
rfemur -26.3612 12.0149 15.061
rtibia 26.1182
rfoot -7.77099 -32.2461
rtoes 7.79793
lfemur -28.7503 -25.243 -4.0781
ltibia 17.8391
lfoot -7.81203 14.1737
ltoes -22.7385
2590
root 14.0973 16.5174 -12.2172 -346 8.84129 -0.0599011
lowerback 4.27724 -3.58848 -2.04599
upperback -0.00313722 -4.84692 1.52896
thorax -2.09287 -2.39081 2.9955
lowerneck 1.3614 -8.43828 -13.778
upperneck 9.88988 -14.5955 29.8249
head 6.06484 -6.78946 11.444
rclavicle -3.11098e-014 1.91827e-014
rhumerus -36.7224 -6.10149 -58.3038
rradius 109.201
rwrist 6.5051
rhand 14.8943 14.0989
rfingers 7.12502
rthumb 39.7522 -11.2015
lclavicle -3.11098e-014 1.91827e-014
lhumerus -12.3588 -39.9624 93.7887
lradius 98.908
lwrist -52.7278
lhand 7.99797 47.7911
lfingers 7.12502
lthumb 33.2251 74.7436
rfemur -26.5148 12.3995 15.0153
rtibia 25.9568
rfoot -8.13335 -32.3511
rtoes 8.17876
lfemur -28.8588 -24.7689 -4.05923
ltibia 17.8982
lfoot -7.69386 14.0861
ltoes -23.4214
2591
root 14.1081 16.5168 -12.2152 -346.111 8.25022 -0.27244
lowerback 4.64734 -3.54922 -2.2739
upperback -0.262806 -4.80831 1.74236
thorax -2.53337 -2.35699 3.37888
lowerneck 1.13648 -8.4884 -13.9048
upperneck 10.4763 -14.7249 29.3217
head 6.27855 -6.82016 11.2606
rclavicle -1.64246e-014 5.36719e-015
rhumerus -35.2543 -6.78945 -57.7418
rradius 108.843
rwrist 7.07836
rhand 14.2299 14.5907
rfingers 7.12502
rthumb 39.1263 -10.8931
lclavicle -1.64246e-014 5.36719e-015
lhumerus -14.0959 -40.0329 95.1932
lradius 98.8768
lwrist -52.9411
lhand 8.43271 48.2945
lfingers 7.12502
lthumb 33.6383 75.1578
rfemur -26.3759 13.1014 15.0463
rtibia 25.5985
rfoot -8.25656 -32.3139
rtoes 9.30293
lfemur -28.7574 -24.1642 -4.16339
ltibia 18.4009
lfoot -7.94096 14.1031
ltoes -23.5297
2592
root 14.1157 16.5151 -12.2047 -346.378 7.52538 -0.54115
lowerback 5.04073 -3.48672 -2.33974
upperback -0.519752 -4.73405 1.82223
thorax -3.01284 -2.30545 3.53488
lowerneck 1.1467 -8.44606 -14.1625
upperneck 11.1006 -14.7862 29.1054
head 6.48037 -6.83671 11.2443
rclavicle 5.07398e-014 -1.70955e-014
rhumerus -33.9537 -7.21921 -57.6549
rradius 108.697
rwrist 7.19759
rhand 13.6642 14.238
rfingers 7.12502
rthumb 38.5928 -11.3975
lclavicle 5.07398e-014 -1.70955e-014
lhumerus -16.1839 -39.6019 96.4875
lradius 98.8769
lwrist -53.2019
lhand 9.16854 48.2389
lfingers 7.12502
lthumb 34.3373 74.9472
rfemur -26.0358 13.9239 15.1652
rtibia 25.112
rfoot -7.69371 -32.3547
rtoes 8.81029
lfemur -28.527 -23.5709 -4.27848
ltibia 19.1177
lfoot -8.38988 14.2176
ltoes -23.3373
